{"accessors" : [{"bufferView" : 0, "byteOffset" : 0, "componentType" : 5123, "count" : 8148, "type" : "SCALAR", "max" : [7313], "min" : [0]}, {"bufferView" : 1, "byteOffset" : 0, "componentType" : 5126, "count" : 7314, "type" : "VEC3", "max" : [0.06226467341184616, 0.010999999940395355, -0.010987026616930962], "min" : [0.049408506602048874, -0.010999999940395355, -0.02525896206498146], "name" : "POSITION"}, {"bufferView" : 1, "byteOffset" : 12, "componentType" : 5126, "count" : 7314, "type" : "VEC2", "max" : [1, 1], "min" : [0, 0], "name" : "TEXCOORD_0"}, {"bufferView" : 1, "byteOffset" : 20, "componentType" : 5126, "count" : 7314, "type" : "VEC3", "max" : [1.000003695487976, 1.0000044107437134, 0.9999986886978149], "min" : [-1.0000042915344238, -1.0000044107437134, -0.9998971223831177], "name" : "NORMAL"}, {"bufferView" : 0, "byteOffset" : 16296, "componentType" : 5123, "count" : 26976, "type" : "SCALAR", "max" : [24229], "min" : [0]}, {"bufferView" : 2, "byteOffset" : 0, "componentType" : 5126, "count" : 24230, "type" : "VEC3", "max" : [0.047531239688396454, 0.010999999940395355, -0.001462192041799426], "min" : [3.733640187419951E-05, -0.010999999940395355, -0.019274720922112465], "name" : "POSITION"}, {"bufferView" : 2, "byteOffset" : 12, "componentType" : 5126, "count" : 24230, "type" : "VEC2", "max" : [1, 1], "min" : [0, 0], "name" : "TEXCOORD_0"}, {"bufferView" : 2, "byteOffset" : 20, "componentType" : 5126, "count" : 24230, "type" : "VEC3", "max" : [1.0000044107437134, 1.0000044107437134, 1.000003695487976], "min" : [-1.0000044107437134, -1.0000044107437134, -1.0000042915344238], "name" : "NORMAL"}, {"bufferView" : 0, "byteOffset" : 70248, "componentType" : 5123, "count" : 564, "type" : "SCALAR", "max" : [507], "min" : [0]}, {"bufferView" : 3, "byteOffset" : 0, "componentType" : 5126, "count" : 508, "type" : "VEC3", "max" : [0.043532297015190125, 0.010999999940395355, -0.016191821545362473], "min" : [0.04231458902359009, -0.010999999940395355, -0.017166048288345337], "name" : "POSITION"}, {"bufferView" : 3, "byteOffset" : 12, "componentType" : 5126, "count" : 508, "type" : "VEC2", "max" : [1, 1], "min" : [0, 0], "name" : "TEXCOORD_0"}, {"bufferView" : 3, "byteOffset" : 20, "componentType" : 5126, "count" : 508, "type" : "VEC3", "max" : [0.9991596937179565, 1.0000044107437134, 0.9997767806053162], "min" : [-0.9997572302818298, -1.0000044107437134, -0.9998053908348083], "name" : "NORMAL"}, {"bufferView" : 0, "byteOffset" : 71376, "componentType" : 5123, "count" : 708, "type" : "SCALAR", "max" : [631], "min" : [0]}, {"bufferView" : 4, "byteOffset" : 0, "componentType" : 5126, "count" : 632, "type" : "VEC3", "max" : [0.026997718960046768, 0.010999999940395355, -0.010638627223670483], "min" : [0.025548700243234634, -0.010999999940395355, -0.01392060611397028], "name" : "POSITION"}, {"bufferView" : 4, "byteOffset" : 12, "componentType" : 5126, "count" : 632, "type" : "VEC2", "max" : [1, 1], "min" : [0, 0], "name" : "TEXCOORD_0"}, {"bufferView" : 4, "byteOffset" : 20, "componentType" : 5126, "count" : 632, "type" : "VEC3", "max" : [0.9999731779098511, 1.0000044107437134, 0.9999979734420776], "min" : [-0.9994202256202698, -1.0000044107437134, -0.9992631673812866], "name" : "NORMAL"}, {"bufferView" : 0, "byteOffset" : 72792, "componentType" : 5123, "count" : 852, "type" : "SCALAR", "max" : [767], "min" : [0]}, {"bufferView" : 5, "byteOffset" : 0, "componentType" : 5126, "count" : 768, "type" : "VEC3", "max" : [0.00469971913844347, 0.010999999940395355, -0.009580985642969608], "min" : [0.0032642127480357885, -0.010999999940395355, -0.012081996537744999], "name" : "POSITION"}, {"bufferView" : 5, "byteOffset" : 12, "componentType" : 5126, "count" : 768, "type" : "VEC2", "max" : [1, 1], "min" : [0, 0], "name" : "TEXCOORD_0"}, {"bufferView" : 5, "byteOffset" : 20, "componentType" : 5126, "count" : 768, "type" : "VEC3", "max" : [0.9999716877937317, 1.0000044107437134, 0.9986860156059265], "min" : [-0.9998737573623657, -1.0000044107437134, -0.9965550303459167], "name" : "NORMAL"}, {"bufferView" : 0, "byteOffset" : 74496, "componentType" : 5123, "count" : 564, "type" : "SCALAR", "max" : [501], "min" : [0]}, {"bufferView" : 6, "byteOffset" : 0, "componentType" : 5126, "count" : 502, "type" : "VEC3", "max" : [0.010955705307424068, 0.010999999940395355, -0.007341274991631508], "min" : [0.009458554908633232, -0.010999999940395355, -0.010814382694661617], "name" : "POSITION"}, {"bufferView" : 6, "byteOffset" : 12, "componentType" : 5126, "count" : 502, "type" : "VEC2", "max" : [1, 1], "min" : [0, 0], "name" : "TEXCOORD_0"}, {"bufferView" : 6, "byteOffset" : 20, "componentType" : 5126, "count" : 502, "type" : "VEC3", "max" : [0.9997097849845886, 1.0000044107437134, 0.9964451193809509], "min" : [-0.9999978542327881, -1.0000044107437134, -0.9977903962135315], "name" : "NORMAL"}], "asset" : {"generator" : "Aspose.3D 22.12", "version" : "2.0"}, "buffers" : [{"uri" : "data:application/octet-stream;base64,", "byteLength" : 1285636}], "bufferViews" : [{"buffer" : 0, "byteOffset" : 0, "byteLength" : 75624, "target" : 34963}, {"buffer" : 0, "byteOffset" : 75628, "byteLength" : 260736, "byteStride" : 32, "target" : 34962}, {"buffer" : 0, "byteOffset" : 336368, "byteLength" : 863232, "byteStride" : 32, "target" : 34962}, {"buffer" : 0, "byteOffset" : 1199604, "byteLength" : 18048, "byteStride" : 32, "target" : 34962}, {"buffer" : 0, "byteOffset" : 1217656, "byteLength" : 22656, "byteStride" : 32, "target" : 34962}, {"buffer" : 0, "byteOffset" : 1240316, "byteLength" : 27264, "byteStride" : 32, "target" : 34962}, {"buffer" : 0, "byteOffset" : 1267584, "byteLength" : 18048, "byteStride" : 32, "target" : 34962}], "materials" : [{"name" : "SVGMat.001", "pbrMetallicRoughness" : {"baseColorFactor" : [1, 0.327777624130249, 0.41788506507873535, 1], "metallicFactor" : 1, "roughnessFactor" : 0.5}, "emissiveFactor" : [0, 0, 0], "alphaMode" : "OPAQUE", "doubleSided" : true}, {"name" : "SVGMat.001", "pbrMetallicRoughness" : {"baseColorFactor" : [1, 0.327777624130249, 0.41788506507873535, 1], "metallicFactor" : 1, "roughnessFactor" : 0.5}, "emissiveFactor" : [0, 0, 0], "alphaMode" : "OPAQUE", "doubleSided" : true}, {"name" : "SVGMat.001", "pbrMetallicRoughness" : {"baseColorFactor" : [1, 0.327777624130249, 0.41788506507873535, 1], "metallicFactor" : 1, "roughnessFactor" : 0.5}, "emissiveFactor" : [0, 0, 0], "alphaMode" : "OPAQUE", "doubleSided" : true}, {"name" : "SVGMat.001", "pbrMetallicRoughness" : {"baseColorFactor" : [1, 0.327777624130249, 0.41788506507873535, 1], "metallicFactor" : 1, "roughnessFactor" : 0.5}, "emissiveFactor" : [0, 0, 0], "alphaMode" : "OPAQUE", "doubleSided" : true}, {"name" : "SVGMat.001", "pbrMetallicRoughness" : {"baseColorFactor" : [1, 0.327777624130249, 0.41788506507873535, 1], "metallicFactor" : 1, "roughnessFactor" : 0.5}, "emissiveFactor" : [0, 0, 0], "alphaMode" : "OPAQUE", "doubleSided" : true}, {"name" : "SVGMat.001", "pbrMetallicRoughness" : {"baseColorFactor" : [1, 0.327777624130249, 0.41788506507873535, 1], "metallicFactor" : 1, "roughnessFactor" : 0.5}, "emissiveFactor" : [0, 0, 0], "alphaMode" : "OPAQUE", "doubleSided" : true}], "meshes" : [{"primitives" : [{"attributes" : {"POSITION" : 1, "TEXCOORD_0" : 2, "NORMAL" : 3}, "indices" : 0, "material" : 0, "mode" : 4}]}, {"primitives" : [{"attributes" : {"POSITION" : 5, "TEXCOORD_0" : 6, "NORMAL" : 7}, "indices" : 4, "material" : 1, "mode" : 4}]}, {"primitives" : [{"attributes" : {"POSITION" : 9, "TEXCOORD_0" : 10, "NORMAL" : 11}, "indices" : 8, "material" : 2, "mode" : 4}]}, {"primitives" : [{"attributes" : {"POSITION" : 13, "TEXCOORD_0" : 14, "NORMAL" : 15}, "indices" : 12, "material" : 3, "mode" : 4}]}, {"primitives" : [{"attributes" : {"POSITION" : 17, "TEXCOORD_0" : 18, "NORMAL" : 19}, "indices" : 16, "material" : 4, "mode" : 4}]}, {"primitives" : [{"attributes" : {"POSITION" : 21, "TEXCOORD_0" : 22, "NORMAL" : 23}, "indices" : 20, "material" : 5, "mode" : 4}]}], "nodes" : [{"mesh" : 0, "name" : "Curve"}, {"mesh" : 1, "name" : "Curve.001"}, {"mesh" : 2, "name" : "Curve.002"}, {"mesh" : 3, "name" : "Curve.003"}, {"mesh" : 4, "name" : "Curve.004"}, {"mesh" : 5, "name" : "Curve.005"}], "scene" : 0, "scenes" : [{"nodes" : [0, 1, 2, 3, 4, 5]}]}