{"accessors" : [{"bufferView" : 0, "byteOffset" : 0, "componentType" : 5123, "count" : 37812, "type" : "SCALAR", "max" : [33961], "min" : [0]}, {"bufferView" : 1, "byteOffset" : 0, "componentType" : 5126, "count" : 33962, "type" : "VEC3", "max" : [0.030274614691734314, 0.010999996215105057, 0.009691504761576653], "min" : [-0.03195272386074066, -0.011000003665685654, -0.014105265028774738], "name" : "POSITION"}, {"bufferView" : 1, "byteOffset" : 12, "componentType" : 5126, "count" : 33962, "type" : "VEC2", "max" : [1, 1], "min" : [0, 0], "name" : "TEXCOORD_0"}, {"bufferView" : 1, "byteOffset" : 20, "componentType" : 5126, "count" : 33962, "type" : "VEC3", "max" : [1.0000038146972656, 1.0000044107437134, 1.0000038146972656], "min" : [-1.0000044107437134, -1.0000044107437134, -1.0000042915344238], "name" : "NORMAL"}], "asset" : {"generator" : "Aspose.3D 23.1", "version" : "2.0"}, "buffers" : [{"uri" : "data:application/octet-stream;base64,", "byteLength" : 1285616}], "bufferViews" : [{"buffer" : 0, "byteOffset" : 0, "byteLength" : 75624, "target" : 34963}, {"buffer" : 0, "byteOffset" : 75628, "byteLength" : 1209984, "byteStride" : 32, "target" : 34962}], "materials" : [{"name" : "SVGMat.001", "pbrMetallicRoughness" : {"baseColorFactor" : [1, 0.327777624130249, 0.41788506507873535, 1], "metallicFactor" : 1, "roughnessFactor" : 0.5}, "emissiveFactor" : [0, 0, 0], "alphaMode" : "OPAQUE", "doubleSided" : true}], "meshes" : [{"primitives" : [{"attributes" : {"POSITION" : 1, "TEXCOORD_0" : 2, "NORMAL" : 3}, "indices" : 0, "material" : 0, "mode" : 4}]}], "nodes" : [{"mesh" : 0, "name" : "Curve.005"}], "scene" : 0, "scenes" : [{"nodes" : [0]}]}